<svg width="120" height="120" viewBox="0 0 120 120" fill="none" xmlns="http://www.w3.org/2000/svg">
  <!-- Wrench Icon (Red variant) -->
  <g id="wrench-red">
    <path d="M25 25 L40 10 L47 17 L32 32 L25 25 Z" fill="none" stroke="#D32F2F" stroke-width="3"/>
    <circle cx="25" cy="25" r="12" fill="none" stroke="#D32F2F" stroke-width="3"/>
    <circle cx="25" cy="25" r="6" fill="#FF6B6B"/>
  </g>
  
  <!-- Wrench Icon (Blue variant) -->
  <g id="wrench-blue">
    <path d="M75 25 L90 10 L97 17 L82 32 L75 25 Z" fill="none" stroke="#1976D2" stroke-width="3"/>
    <circle cx="75" cy="25" r="12" fill="none" stroke="#1976D2" stroke-width="3"/>
    <circle cx="75" cy="25" r="6" fill="#4FC3F7"/>
  </g>
  
  <!-- Tire Icon (Red variant) -->
  <g id="tire-red">
    <circle cx="25" cy="75" r="15" fill="none" stroke="#D32F2F" stroke-width="3"/>
    <circle cx="25" cy="75" r="10" fill="none" stroke="#D32F2F" stroke-width="2"/>
    <circle cx="25" cy="75" r="5" fill="#FF6B6B"/>
    <path d="M10 75 L40 75 M25 60 L25 90" stroke="#D32F2F" stroke-width="2"/>
  </g>
  
  <!-- Tire Icon (Blue variant) -->
  <g id="tire-blue">
    <circle cx="75" cy="75" r="15" fill="none" stroke="#1976D2" stroke-width="3"/>
    <circle cx="75" cy="75" r="10" fill="none" stroke="#1976D2" stroke-width="2"/>
    <circle cx="75" cy="75" r="5" fill="#4FC3F7"/>
    <path d="M60 75 L90 75 M75 60 L75 90" stroke="#1976D2" stroke-width="2"/>
  </g>
  
  <!-- Key Icon (Red variant) -->
  <g id="key-red">
    <circle cx="25" cy="105" r="8" fill="none" stroke="#D32F2F" stroke-width="3"/>
    <rect x="30" y="100" width="15" height="10" fill="#FF6B6B" stroke="#D32F2F" stroke-width="2"/>
    <path d="M45 105 L55 105" stroke="#D32F2F" stroke-width="3"/>
  </g>
  
  <!-- Key Icon (Blue variant) -->
  <g id="key-blue">
    <circle cx="75" cy="105" r="8" fill="none" stroke="#1976D2" stroke-width="3"/>
    <rect x="80" y="100" width="15" height="10" fill="#4FC3F7" stroke="#1976D2" stroke-width="2"/>
    <path d="M95 105 L105 105" stroke="#1976D2" stroke-width="3"/>
  </g>
  
  <!-- Spark Plug Icon (Red variant) -->
  <g id="spark-red">
    <rect x="100" y="25" width="6" height="20" fill="#D32F2F" stroke="#7B0000" stroke-width="2"/>
    <rect x="97" y="22" width="12" height="6" fill="#FF6B6B" stroke="#D32F2F" stroke-width="2"/>
    <path d="M103 45 L103 52" stroke="#D32F2F" stroke-width="3"/>
  </g>
  
  <!-- Spark Plug Icon (Blue variant) -->
  <g id="spark-blue">
    <rect x="100" y="60" width="6" height="20" fill="#1976D2" stroke="#0D47A1" stroke-width="2"/>
    <rect x="97" y="57" width="12" height="6" fill="#4FC3F7" stroke="#1976D2" stroke-width="2"/>
    <path d="M103 80 L103 87" stroke="#1976D2" stroke-width="3"/>
  </g>
</svg>
